<?xml version="1.0" encoding="UTF-8" standalone="no"?>
<!-- Created with Inkscape (http://www.inkscape.org/) -->

<svg
   width="150.91833mm"
   height="50.720619mm"
   viewBox="0 0 150.91833 50.720619"
   version="1.1"
   id="svg1445"
   inkscape:version="1.1.1 (3bf5ae0, 2021-09-20)"
   sodipodi:docname="logo_name_test.svg"
   xmlns:inkscape="http://www.inkscape.org/namespaces/inkscape"
   xmlns:sodipodi="http://sodipodi.sourceforge.net/DTD/sodipodi-0.dtd"
   xmlns="http://www.w3.org/2000/svg"
   xmlns:svg="http://www.w3.org/2000/svg">
  <sodipodi:namedview
     id="namedview1447"
     pagecolor="#ffffff"
     bordercolor="#666666"
     borderopacity="1.0"
     inkscape:pageshadow="2"
     inkscape:pageopacity="0.0"
     inkscape:pagecheckerboard="0"
     inkscape:document-units="mm"
     showgrid="false"
     inkscape:zoom="0.77593294"
     inkscape:cx="231.97881"
     inkscape:cy="313.81578"
     inkscape:window-width="1880"
     inkscape:window-height="1055"
     inkscape:window-x="5360"
     inkscape:window-y="668"
     inkscape:window-maximized="1"
     inkscape:current-layer="layer1" />
  <defs
     id="defs1442">
    <style
       id="style909"><![CDATA[
.class1 {
  fill:#2c3e50;
}
]]></style>
  </defs>
  <g
     inkscape:label="Layer 1"
     inkscape:groupmode="layer"
     id="layer1"
     transform="translate(-43.20444,-65.412972)">
    <path
       class="st0 class1"
       d="m 68.57798,84.621722 c -3.38667,0 -6.13833,2.75167 -6.13833,6.13833 0,3.38667 2.75166,6.13833 6.13833,6.13833 3.38667,0 6.13833,-2.75166 6.13833,-6.13833 0,-3.38666 -2.75166,-6.13833 -6.13833,-6.13833 z"
       id="path42"
       style="stroke-width:0.264583" />
    <path
       class="st0 class1"
       d="m 61.03736,99.200262 c 0.21166,0.0794 0.42333,0.13229 0.635,0.13229 0.42333,0 0.8202,-0.15875 1.1377,-0.47625 0.635,-0.635 0.635,-1.66687 0,-2.30187 -0.3175,-0.3175 -0.74083,-0.47625 -1.16416,-0.47625 -0.42334,0 -0.84667,0.15875 -1.16417,0.47625 -0.47625,0.47625 -0.60854,1.19062 -0.34396,1.7727 l -3.28083,1.27 -13.6525,16.245418 0.29104,0.29104 16.24542,-13.6525 z"
       id="path44"
       style="stroke-width:0.264583" />
    <path
       class="st0 class1"
       d="m 58.55027,105.65609 c 1.42875,1.21709 2.88396,2.30188 4.41854,3.28084 0.55563,-0.21167 1.77271,-0.68792 2.30188,-1.00542 -1.87854,-1.08479 -3.38667,-2.19604 -5.10646,-3.65125 z"
       id="path46"
       style="stroke-width:0.264583" />
    <path
       class="st0 class1"
       d="m 77.38861,79.065472 -1.27,3.28083 c -0.21167,-0.0794 -0.42334,-0.13229 -0.60855,-0.13229 -0.42333,0 -0.8202,0.15875 -1.1377,0.47625 -0.635,0.635 -0.635,1.66688 0,2.30188 0.3175,0.3175 0.74083,0.47625 1.16416,0.47625 0.42334,0 0.84667,-0.15875 1.16417,-0.47625 0.47625,-0.47625 0.60854,-1.19063 0.34396,-1.77271 l 3.28083,-1.27 13.6525,-16.24542 -0.29104,-0.29104 z"
       id="path48"
       style="stroke-width:0.264583" />
    <path
       class="st0 class1"
       d="m 75.2984,79.912142 c -1.95792,-1.21709 -4.25979,-1.93146 -6.72042,-1.93146 -7.03792,0 -12.77937,5.74146 -12.77937,12.77937 0,2.46063 0.71437,4.7625 1.93145,6.72042 l 0.68792,-0.26459 c 0.10583,-0.68791 0.42333,-1.32291 0.92604,-1.85208 0.10584,-0.10583 0.21167,-0.18521 0.34396,-0.29104 -0.635,-1.29646 -1.00542,-2.77813 -1.00542,-4.31271 0,-5.45041 4.445,-9.89541 9.89542,-9.89541 1.56104,0 3.01625,0.37041 4.31271,1.00541 0.0794,-0.10583 0.15875,-0.23812 0.26458,-0.34396 0.50271,-0.5027 1.13771,-0.8202 1.85209,-0.92604 z"
       id="path50"
       style="stroke-width:0.264583" />
    <path
       class="st0 class1"
       d="m 68.57798,100.65547 c -1.56104,0 -3.01625,-0.37042 -4.31271,-1.005418 -0.0794,0.10583 -0.15875,0.23813 -0.26458,0.34396 -0.50271,0.502708 -1.13771,0.820208 -1.85208,0.926038 l -0.26459,0.68792 c 1.95792,1.21708 4.25979,1.93146 6.72042,1.93146 7.03792,0 12.77937,-5.741458 12.77937,-12.779378 0,-2.46062 -0.71437,-4.7625 -1.93145,-6.72041 l -0.68792,0.26458 c -0.10583,0.68792 -0.42333,1.32292 -0.92604,1.85208 -0.10584,0.10584 -0.21167,0.18521 -0.34396,0.29104 0.635,1.29646 1.00542,2.77813 1.00542,4.31271 -0.0265,5.47688 -4.47146,9.895418 -9.92188,9.895418 z"
       id="path52"
       style="stroke-width:0.264583" />
    <path
       class="st0 class1"
       d="m 47.49069,90.786512 c -2.64583,6.50875 -2.77813,12.911668 0.0265,17.383118 l 1.40229,-1.66687 c -1.905,-3.46604 -1.905,-8.149168 -0.23813,-13.096878 1.32292,2.56646 3.01625,5.08 5.02709,7.408338 l 1.34937,-1.587498 c -2.24896,-2.67229 -4.04812,-5.52979 -5.34458,-8.44021 1.69333,-3.81 4.31271,-7.64646 7.77875,-11.1125 3.38667,-3.38667 7.19667,-6.0325 11.08604,-7.77875 2.8575,1.27 5.74146,3.04271 8.46667,5.34458 l 1.5875,-1.34937 c -2.38125,-2.03729 -4.92125,-3.70417 -7.43479,-5.00063 0.84666,-0.29104 1.66687,-0.52916 2.48708,-0.71437 4.18042,-0.9525 7.83167,-0.60854 10.63625,0.92604 l 1.66687,-1.40229 c -3.30729,-2.11667 -7.75229,-2.67229 -12.75291,-1.53458 -1.56104,0.34395 -3.12209,0.84666 -4.68313,1.50812 -7.56708,-3.09562 -14.97541,-2.75167 -19.39396,1.66688 -3.41312,3.41312 -4.55083,8.67833 -3.175,14.7902 0.34396,1.56105 0.87313,3.12209 1.50813,4.65667 z m 3.09562,-17.99167 c 3.4925,-3.4925 9.23396,-3.9952 15.3723,-1.93145 -3.4925,1.79916 -6.90563,4.28625 -9.94834,7.35541 -3.09562,3.09563 -5.55625,6.50875 -7.32896,9.94834 -0.26458,-0.82021 -0.52916,-1.64042 -0.71437,-2.48709 -1.19063,-5.42396 -0.26458,-10.00125 2.61937,-12.88521 z"
       id="path54"
       style="stroke-width:0.264583" />
    <path
       class="st0 class1"
       d="m 82.12465,82.319842 c 2.27541,2.72521 4.07458,5.60917 5.34458,8.44021 l -0.0265,0.0794 c -1.74625,3.88937 -4.41854,7.69937 -7.72583,11.006658 -4.86833,4.86834 -10.60979,8.22854 -16.1925,9.49854 -4.18042,0.9525 -7.83167,0.60855 -10.63625,-0.92604 l -1.66688,1.40229 c 2.19605,1.4023 4.86834,2.11667 7.85813,2.11667 1.56104,0 3.20146,-0.18521 4.89479,-0.58208 5.95313,-1.34938 12.065,-4.89479 17.19792,-10.02771 3.01625,-3.01625 5.52979,-6.429378 7.35541,-9.948328 2.06375,6.13833 1.56105,11.879788 -1.93145,15.372288 -2.64584,2.64583 -6.7998,3.62479 -11.58875,2.8575 -0.89959,0.55562 -1.79917,1.05833 -2.72521,1.50812 2.03729,0.52917 3.99521,0.82021 5.82083,0.82021 4.02167,0 7.48771,-1.27 9.94833,-3.73062 6.40292,-6.40292 4.2598,-19.129378 -4.55083,-29.474588 z"
       id="path56"
       style="stroke-width:0.264583" />
    <path
       class="st0 class1"
       d="m 88.23652,75.043802 c 1.16417,2.14313 1.61396,4.81542 1.34938,7.80521 0.60854,0.9525 1.16416,1.93146 1.64041,2.88396 1.00542,-4.84188 0.4498,-9.12813 -1.61395,-12.3825 z"
       id="path58"
       style="stroke-width:0.264583" />
    <path
       class="st0 class1"
       d="m 113.02798,84.092552 h -11.00667 v 15.00188 h 2.56646 v -5.2123 h 0.18521 l 8.22854,-0.0264 c 0.79375,0 1.45521,-0.29105 2.01083,-0.84667 0.55563,-0.55563 0.84667,-1.21708 0.84667,-1.98437 v -4.10105 c 0,-0.76729 -0.29104,-1.4552 -0.84667,-1.98437 -0.52916,-0.55563 -1.21708,-0.84667 -1.98437,-0.84667 z m 0.26458,6.95854 c 0,0.15875 -0.10583,0.26459 -0.26458,0.26459 h -8.14917 c -0.15875,0 -0.26458,-0.10584 -0.26458,-0.26459 v -4.10104 c 0,-0.15875 0.10583,-0.26458 0.26458,-0.26458 h 8.14917 c 0.15875,0 0.26458,0.10583 0.26458,0.26458 z"
       id="path60"
       style="stroke-width:0.264583" />
    <path
       class="st0 class1"
       d="m 129.06173,96.289842 c 0,0.18521 -0.13229,0.26459 -0.23813,0.26459 h -8.17562 c -0.15875,0 -0.26458,-0.10584 -0.26458,-0.26459 v -12.19729 h -2.56646 v 12.19729 c 0,0.79375 0.26458,1.45521 0.82021,2.01084 0.55562,0.55562 1.21708,0.8202 2.01083,0.8202 h 8.17562 c 0.7673,0 1.45521,-0.29104 1.98438,-0.8202 0.55562,-0.55563 0.84667,-1.21709 0.84667,-2.01084 v -12.19729 h -2.59292 z"
       id="path62"
       style="stroke-width:0.264583" />
    <polygon
       class="st0 class1"
       points="-307.4,-4970.9 -307.4,-4980.7 -343.8,-4980.7 -343.8,-5027.8 -353.6,-5027.8 -353.6,-4970.9 "
       id="polygon64"
       transform="matrix(0.26458333,0,0,0.26458333,227.77777,1414.3382)" />
    <path
       class="st0 class1"
       d="m 158.6686,84.066092 h -8.17562 c -0.79375,0 -1.45521,0.29105 -2.01083,0.82021 -0.55563,0.55563 -0.82021,1.21709 -0.82021,2.01084 v 3.14854 c 0,0.79375 0.26458,1.4552 0.82021,2.01083 0.55562,0.55562 1.21708,0.82021 2.01083,0.82021 h 8.17562 c 0.10584,0 0.23813,0.0794 0.23813,0.26458 v 3.14854 c 0,0.18521 -0.13229,0.26459 -0.23813,0.26459 h -8.17562 c -0.15875,0 -0.26458,-0.10584 -0.26458,-0.26459 v -1.05833 h -2.56646 v 1.05833 c 0,0.79375 0.26458,1.45521 0.82021,2.01084 0.55562,0.55562 1.21708,0.8202 2.01083,0.8202 h 8.17562 c 0.7673,0 1.45521,-0.29104 1.98438,-0.8202 0.55562,-0.55563 0.84667,-1.21709 0.84667,-2.01084 v -3.14854 c 0,-0.79375 -0.29105,-1.45521 -0.84667,-2.01083 -0.55563,-0.55563 -1.21708,-0.82021 -1.98438,-0.82021 h -8.17562 c -0.15875,0 -0.26458,-0.10583 -0.26458,-0.26458 v -3.14854 c 0,-0.15875 0.10583,-0.26459 0.26458,-0.26459 h 8.17562 c 0.10584,0 0.23813,0.0794 0.23813,0.26459 v 1.05833 h 2.59292 v -1.05833 c 0,-0.79375 -0.29105,-1.45521 -0.84667,-2.01084 -0.52917,-0.52916 -1.21708,-0.82021 -1.98438,-0.82021 z"
       id="path66"
       style="stroke-width:0.264583" />
    <path
       class="st0 class1"
       d="m 175.04631,84.066092 h -8.14916 c -0.79375,0 -1.45521,0.29105 -2.01084,0.82021 -0.55562,0.55563 -0.82021,1.21709 -0.82021,2.01084 v 12.19729 h 2.56646 v -5.13292 h 8.67834 v 5.13292 h 2.59291 v -12.19729 c 0,-0.79375 -0.29104,-1.45521 -0.84666,-2.01084 -0.55563,-0.52916 -1.24355,-0.82021 -2.01084,-0.82021 z m 0.26459,7.35542 h -8.67834 v -4.49792 c 0,-0.15875 0.10584,-0.26458 0.26459,-0.26458 h 8.14916 c 0.15875,0 0.26459,0.10583 0.26459,0.26458 z"
       id="path68"
       style="stroke-width:0.264583" />
    <path
       class="st0 class1"
       d="m 193.2761,93.035472 c 0.55563,-0.55563 0.84667,-1.21709 0.84667,-1.98438 v -4.10104 c 0,-0.76729 -0.29104,-1.45521 -0.84667,-1.98437 -0.55562,-0.55563 -1.24354,-0.84667 -2.01083,-0.84667 h -10.98021 v 15.00187 h 2.56646 v -5.23875 h 3.96875 l 0.0265,0.0529 4.36562,5.18583 h 2.88396 v -0.55562 l -3.91583,-4.65667 h 1.05833 c 0.82021,-0.0265 1.48167,-0.3175 2.03729,-0.87312 z m -10.16,-1.71979 c -0.15875,0 -0.26458,-0.10584 -0.26458,-0.26459 v -4.10104 c 0,-0.15875 0.10583,-0.26458 0.26458,-0.26458 h 8.14917 c 0.15875,0 0.26458,0.10583 0.26458,0.26458 v 4.10104 c 0,0.15875 -0.10583,0.26459 -0.26458,0.26459 z"
       id="path70"
       style="stroke-width:0.264583" />
  </g>
</svg>
