<?xml version="1.0" encoding="utf-8"?>
<svg viewBox="148.474 87.707 50.774 50.721" xmlns="http://www.w3.org/2000/svg">
  <g id="layer1" transform="matrix(1, 0, 0, 1, 105.269676, 22.293901)">
    <path class="st0 class1" d="m 68.57798,84.621722 c -3.38667,0 -6.13833,2.75167 -6.13833,6.13833 0,3.38667 2.75166,6.13833 6.13833,6.13833 3.38667,0 6.13833,-2.75166 6.13833,-6.13833 0,-3.38666 -2.75166,-6.13833 -6.13833,-6.13833 z" id="path42" style="stroke-width: 0.264583; fill: rgb(255, 255, 255);"/>
    <path class="st0 class1" d="m 61.03736,99.200262 c 0.21166,0.0794 0.42333,0.13229 0.635,0.13229 0.42333,0 0.8202,-0.15875 1.1377,-0.47625 0.635,-0.635 0.635,-1.66687 0,-2.30187 -0.3175,-0.3175 -0.74083,-0.47625 -1.16416,-0.47625 -0.42334,0 -0.84667,0.15875 -1.16417,0.47625 -0.47625,0.47625 -0.60854,1.19062 -0.34396,1.7727 l -3.28083,1.27 -13.6525,16.245418 0.29104,0.29104 16.24542,-13.6525 z" id="path44" style="stroke-width: 0.264583; fill: rgb(255, 255, 255);"/>
    <path class="st0 class1" d="m 58.55027,105.65609 c 1.42875,1.21709 2.88396,2.30188 4.41854,3.28084 0.55563,-0.21167 1.77271,-0.68792 2.30188,-1.00542 -1.87854,-1.08479 -3.38667,-2.19604 -5.10646,-3.65125 z" id="path46" style="stroke-width: 0.264583; fill: rgb(255, 255, 255);"/>
    <path class="st0 class1" d="m 77.38861,79.065472 -1.27,3.28083 c -0.21167,-0.0794 -0.42334,-0.13229 -0.60855,-0.13229 -0.42333,0 -0.8202,0.15875 -1.1377,0.47625 -0.635,0.635 -0.635,1.66688 0,2.30188 0.3175,0.3175 0.74083,0.47625 1.16416,0.47625 0.42334,0 0.84667,-0.15875 1.16417,-0.47625 0.47625,-0.47625 0.60854,-1.19063 0.34396,-1.77271 l 3.28083,-1.27 13.6525,-16.24542 -0.29104,-0.29104 z" id="path48" style="stroke-width: 0.264583; fill: rgb(255, 255, 255);"/>
    <path class="st0 class1" d="m 75.2984,79.912142 c -1.95792,-1.21709 -4.25979,-1.93146 -6.72042,-1.93146 -7.03792,0 -12.77937,5.74146 -12.77937,12.77937 0,2.46063 0.71437,4.7625 1.93145,6.72042 l 0.68792,-0.26459 c 0.10583,-0.68791 0.42333,-1.32291 0.92604,-1.85208 0.10584,-0.10583 0.21167,-0.18521 0.34396,-0.29104 -0.635,-1.29646 -1.00542,-2.77813 -1.00542,-4.31271 0,-5.45041 4.445,-9.89541 9.89542,-9.89541 1.56104,0 3.01625,0.37041 4.31271,1.00541 0.0794,-0.10583 0.15875,-0.23812 0.26458,-0.34396 0.50271,-0.5027 1.13771,-0.8202 1.85209,-0.92604 z" id="path50" style="stroke-width: 0.264583; fill: rgb(255, 255, 255);"/>
    <path class="st0 class1" d="m 68.57798,100.65547 c -1.56104,0 -3.01625,-0.37042 -4.31271,-1.005418 -0.0794,0.10583 -0.15875,0.23813 -0.26458,0.34396 -0.50271,0.502708 -1.13771,0.820208 -1.85208,0.926038 l -0.26459,0.68792 c 1.95792,1.21708 4.25979,1.93146 6.72042,1.93146 7.03792,0 12.77937,-5.741458 12.77937,-12.779378 0,-2.46062 -0.71437,-4.7625 -1.93145,-6.72041 l -0.68792,0.26458 c -0.10583,0.68792 -0.42333,1.32292 -0.92604,1.85208 -0.10584,0.10584 -0.21167,0.18521 -0.34396,0.29104 0.635,1.29646 1.00542,2.77813 1.00542,4.31271 -0.0265,5.47688 -4.47146,9.895418 -9.92188,9.895418 z" id="path52" style="stroke-width: 0.264583; fill: rgb(255, 255, 255);"/>
    <path class="st0 class1" d="m 47.49069,90.786512 c -2.64583,6.50875 -2.77813,12.911668 0.0265,17.383118 l 1.40229,-1.66687 c -1.905,-3.46604 -1.905,-8.149168 -0.23813,-13.096878 1.32292,2.56646 3.01625,5.08 5.02709,7.408338 l 1.34937,-1.587498 c -2.24896,-2.67229 -4.04812,-5.52979 -5.34458,-8.44021 1.69333,-3.81 4.31271,-7.64646 7.77875,-11.1125 3.38667,-3.38667 7.19667,-6.0325 11.08604,-7.77875 2.8575,1.27 5.74146,3.04271 8.46667,5.34458 l 1.5875,-1.34937 c -2.38125,-2.03729 -4.92125,-3.70417 -7.43479,-5.00063 0.84666,-0.29104 1.66687,-0.52916 2.48708,-0.71437 4.18042,-0.9525 7.83167,-0.60854 10.63625,0.92604 l 1.66687,-1.40229 c -3.30729,-2.11667 -7.75229,-2.67229 -12.75291,-1.53458 -1.56104,0.34395 -3.12209,0.84666 -4.68313,1.50812 -7.56708,-3.09562 -14.97541,-2.75167 -19.39396,1.66688 -3.41312,3.41312 -4.55083,8.67833 -3.175,14.7902 0.34396,1.56105 0.87313,3.12209 1.50813,4.65667 z m 3.09562,-17.99167 c 3.4925,-3.4925 9.23396,-3.9952 15.3723,-1.93145 -3.4925,1.79916 -6.90563,4.28625 -9.94834,7.35541 -3.09562,3.09563 -5.55625,6.50875 -7.32896,9.94834 -0.26458,-0.82021 -0.52916,-1.64042 -0.71437,-2.48709 -1.19063,-5.42396 -0.26458,-10.00125 2.61937,-12.88521 z" id="path54" style="stroke-width: 0.264583; fill: rgb(255, 255, 255);"/>
    <path class="st0 class1" d="m 82.12465,82.319842 c 2.27541,2.72521 4.07458,5.60917 5.34458,8.44021 l -0.0265,0.0794 c -1.74625,3.88937 -4.41854,7.69937 -7.72583,11.006658 -4.86833,4.86834 -10.60979,8.22854 -16.1925,9.49854 -4.18042,0.9525 -7.83167,0.60855 -10.63625,-0.92604 l -1.66688,1.40229 c 2.19605,1.4023 4.86834,2.11667 7.85813,2.11667 1.56104,0 3.20146,-0.18521 4.89479,-0.58208 5.95313,-1.34938 12.065,-4.89479 17.19792,-10.02771 3.01625,-3.01625 5.52979,-6.429378 7.35541,-9.948328 2.06375,6.13833 1.56105,11.879788 -1.93145,15.372288 -2.64584,2.64583 -6.7998,3.62479 -11.58875,2.8575 -0.89959,0.55562 -1.79917,1.05833 -2.72521,1.50812 2.03729,0.52917 3.99521,0.82021 5.82083,0.82021 4.02167,0 7.48771,-1.27 9.94833,-3.73062 6.40292,-6.40292 4.2598,-19.129378 -4.55083,-29.474588 z" id="path56" style="fill: rgb(255, 255, 255); stroke-opacity: 1; stroke-width: 2px;"/>
    <path class="st0 class1" d="m 88.23652,75.043802 c 1.16417,2.14313 1.61396,4.81542 1.34938,7.80521 0.60854,0.9525 1.16416,1.93146 1.64041,2.88396 1.00542,-4.84188 0.4498,-9.12813 -1.61395,-12.3825 z" id="path58" style="stroke-width: 0.264583; fill: rgb(255,255,255);"/>
  </g>
</svg>