<?xml version="1.0" encoding="utf-8"?>
<svg viewBox="207.291 106.36 92.101 15.055" xmlns="http://www.w3.org/2000/svg">
  <path class="st0 class1" d="m 113.02798,84.092552 h -11.00667 v 15.00188 h 2.56646 v -5.2123 h 0.18521 l 8.22854,-0.0264 c 0.79375,0 1.45521,-0.29105 2.01083,-0.84667 0.55563,-0.55563 0.84667,-1.21708 0.84667,-1.98437 v -4.10105 c 0,-0.76729 -0.29104,-1.4552 -0.84667,-1.98437 -0.52916,-0.55563 -1.21708,-0.84667 -1.98437,-0.84667 z m 0.26458,6.95854 c 0,0.15875 -0.10583,0.26459 -0.26458,0.26459 h -8.14917 c -0.15875,0 -0.26458,-0.10584 -0.26458,-0.26459 v -4.10104 c 0,-0.15875 0.10583,-0.26458 0.26458,-0.26458 h 8.14917 c 0.15875,0 0.26458,0.10583 0.26458,0.26458 z" id="path60" style="stroke-width: 0.264583; fill: rgb(255, 255, 255);" transform="matrix(1, 0, 0, 1, 105.269676, 22.293901)"/>
  <path class="st0 class1" d="m 129.06173,96.289842 c 0,0.18521 -0.13229,0.26459 -0.23813,0.26459 h -8.17562 c -0.15875,0 -0.26458,-0.10584 -0.26458,-0.26459 v -12.19729 h -2.56646 v 12.19729 c 0,0.79375 0.26458,1.45521 0.82021,2.01084 0.55562,0.55562 1.21708,0.8202 2.01083,0.8202 h 8.17562 c 0.7673,0 1.45521,-0.29104 1.98438,-0.8202 0.55562,-0.55563 0.84667,-1.21709 0.84667,-2.01084 v -12.19729 h -2.59292 z" id="path62" style="stroke-width: 0.264583; fill: rgb(255, 255, 255);" transform="matrix(1, 0, 0, 1, 105.269676, 22.293901)"/>
  <polygon class="st0 class1" points="-307.4,-4970.9 -307.4,-4980.7 -343.8,-4980.7 -343.8,-5027.8 -353.6,-5027.8 -353.6,-4970.9 " id="polygon64" transform="matrix(0.264583, 0, 0, 0.264583, 333.047447, 1436.632158)" style="fill: rgb(255, 255, 255);"/>
  <path class="st0 class1" d="m 158.6686,84.066092 h -8.17562 c -0.79375,0 -1.45521,0.29105 -2.01083,0.82021 -0.55563,0.55563 -0.82021,1.21709 -0.82021,2.01084 v 3.14854 c 0,0.79375 0.26458,1.4552 0.82021,2.01083 0.55562,0.55562 1.21708,0.82021 2.01083,0.82021 h 8.17562 c 0.10584,0 0.23813,0.0794 0.23813,0.26458 v 3.14854 c 0,0.18521 -0.13229,0.26459 -0.23813,0.26459 h -8.17562 c -0.15875,0 -0.26458,-0.10584 -0.26458,-0.26459 v -1.05833 h -2.56646 v 1.05833 c 0,0.79375 0.26458,1.45521 0.82021,2.01084 0.55562,0.55562 1.21708,0.8202 2.01083,0.8202 h 8.17562 c 0.7673,0 1.45521,-0.29104 1.98438,-0.8202 0.55562,-0.55563 0.84667,-1.21709 0.84667,-2.01084 v -3.14854 c 0,-0.79375 -0.29105,-1.45521 -0.84667,-2.01083 -0.55563,-0.55563 -1.21708,-0.82021 -1.98438,-0.82021 h -8.17562 c -0.15875,0 -0.26458,-0.10583 -0.26458,-0.26458 v -3.14854 c 0,-0.15875 0.10583,-0.26459 0.26458,-0.26459 h 8.17562 c 0.10584,0 0.23813,0.0794 0.23813,0.26459 v 1.05833 h 2.59292 v -1.05833 c 0,-0.79375 -0.29105,-1.45521 -0.84667,-2.01084 -0.52917,-0.52916 -1.21708,-0.82021 -1.98438,-0.82021 z" id="path66" style="stroke-width: 0.264583; fill: rgb(255, 255, 255);" transform="matrix(1, 0, 0, 1, 105.269676, 22.293901)"/>
  <path class="st0 class1" d="m 175.04631,84.066092 h -8.14916 c -0.79375,0 -1.45521,0.29105 -2.01084,0.82021 -0.55562,0.55563 -0.82021,1.21709 -0.82021,2.01084 v 12.19729 h 2.56646 v -5.13292 h 8.67834 v 5.13292 h 2.59291 v -12.19729 c 0,-0.79375 -0.29104,-1.45521 -0.84666,-2.01084 -0.55563,-0.52916 -1.24355,-0.82021 -2.01084,-0.82021 z m 0.26459,7.35542 h -8.67834 v -4.49792 c 0,-0.15875 0.10584,-0.26458 0.26459,-0.26458 h 8.14916 c 0.15875,0 0.26459,0.10583 0.26459,0.26458 z" id="path68" style="stroke-width: 0.264583; fill: rgb(255, 255, 255);" transform="matrix(1, 0, 0, 1, 105.269676, 22.293901)"/>
  <path class="st0 class1" d="m 193.2761,93.035472 c 0.55563,-0.55563 0.84667,-1.21709 0.84667,-1.98438 v -4.10104 c 0,-0.76729 -0.29104,-1.45521 -0.84667,-1.98437 -0.55562,-0.55563 -1.24354,-0.84667 -2.01083,-0.84667 h -10.98021 v 15.00187 h 2.56646 v -5.23875 h 3.96875 l 0.0265,0.0529 4.36562,5.18583 h 2.88396 v -0.55562 l -3.91583,-4.65667 h 1.05833 c 0.82021,-0.0265 1.48167,-0.3175 2.03729,-0.87312 z m -10.16,-1.71979 c -0.15875,0 -0.26458,-0.10584 -0.26458,-0.26459 v -4.10104 c 0,-0.15875 0.10583,-0.26458 0.26458,-0.26458 h 8.14917 c 0.15875,0 0.26458,0.10583 0.26458,0.26458 v 4.10104 c 0,0.15875 -0.10583,0.26459 -0.26458,0.26459 z" id="path70" style="stroke-width: 0.264583; fill: rgb(255, 255, 255);" transform="matrix(1, 0, 0, 1, 105.269676, 22.293901)"/>
</svg>