<?xml version="1.0" encoding="UTF-8" standalone="no"?>
<!-- Created with Inkscape (http://www.inkscape.org/) -->

<svg
   width="56.8325mm"
   height="57.149998mm"
   viewBox="0 0 56.8325 57.149998"
   version="1.1"
   id="svg3476"
   inkscape:version="1.1.1 (3bf5ae0, 2021-09-20)"
   sodipodi:docname="favicon.svg"
   xmlns:inkscape="http://www.inkscape.org/namespaces/inkscape"
   xmlns:sodipodi="http://sodipodi.sourceforge.net/DTD/sodipodi-0.dtd"
   xmlns="http://www.w3.org/2000/svg"
   xmlns:svg="http://www.w3.org/2000/svg">
  <sodipodi:namedview
     id="namedview3478"
     pagecolor="#ffffff"
     bordercolor="#666666"
     borderopacity="1.0"
     inkscape:pageshadow="2"
     inkscape:pageopacity="0.0"
     inkscape:pagecheckerboard="0"
     inkscape:document-units="mm"
     showgrid="false"
     inkscape:zoom="0.77593294"
     inkscape:cx="-665.00592"
     inkscape:cy="364.07785"
     inkscape:window-width="3440"
     inkscape:window-height="1375"
     inkscape:window-x="1920"
     inkscape:window-y="0"
     inkscape:window-maximized="1"
     inkscape:current-layer="layer1" />
  <defs
     id="defs3473" />
  <g
     inkscape:label="Layer 1"
     inkscape:groupmode="layer"
     id="layer1"
     transform="translate(-136.62164,-88.042681)">
    <g
       id="g379"
       transform="matrix(0.26458333,0,0,0.26458333,279.86705,81.983723)"
       style="fill:#662d91;fill-opacity:1">
      <path
         class="st0"
         d="m -459,183.7 -1.1,3.5 -0.1,0.5 -1,3.2 -1.1,3.4 c 2.4,1.7 4.6,3.7 7,5.3 l 1.4,0.9 1.5,-0.6 c 2.2,-0.8 6.6,-2.6 8.7,-3.8 l 5.1,-2.9 -5.1,-2.9 c -4.8,-2.8 -9.3,-5.9 -14.2,-9.9 z"
         id="path365"
         style="fill:#662d91;fill-opacity:1" />
      <path
         class="st0"
         d="m -373.4,101.5 -3.3,1 -1,0.3 -3.8,1.1 -3.4,1 0.1,0.1 c 6.8,7.9 12.3,16.2 16.7,24.4 l -2.2,5.2 c -6.3,14 -16,27.6 -28,39.6 -17.6,17.5 -38.4,29.6 -58.5,34.1 -6,1.4 -11.6,1.8 -16.9,1.7 l -5.2,3.1 -4.4,2.6 -1.2,0.7 -4.3,2.6 -3.8,2.2 c 6.1,2.1 12.7,3.2 20,3.2 6.1,0 12.4,-0.7 18.9,-2.2 22.7,-5.1 46,-18.5 65.5,-37.9 11.4,-11.3 20.8,-24.2 27.7,-37.5 7.3,21.8 5.4,42 -6.9,54 -9.4,9.2 -24.4,12.7 -42.2,9.9 l -1.2,-0.2 -1,0.6 c -3.4,2.1 -6.9,3.9 -10.3,5.6 l -8.1,4 8.8,2.3 c 8.2,2.1 16.1,3.2 23.5,3.2 16.7,0 30.9,-5.2 41,-15.1 24.7,-24.1 18.6,-70.7 -13,-110.7 z"
         id="path367"
         style="fill:#662d91;fill-opacity:1" />
      <path
         class="st0"
         d="m -522.5,191.3 2.1,-3.4 2.6,-4 0.7,-1.2 2.7,-4.3 2.8,-4.3 c -0.8,-8.4 0.2,-17.6 2.9,-27.3 3.2,5.4 6.8,10.7 10.9,15.9 l 3.4,-1.1 7.6,-2.5 3.4,-1.1 -0.8,-1 c -7.4,-9 -13.3,-18.5 -17.8,-28 6.3,-13.2 15.5,-26.5 27.2,-38.5 12.3,-12.6 26,-22.3 40.1,-28.9 8.9,4.4 17.8,10.2 26.3,17.4 l 1.1,-3.3 1.2,-3.5 0.3,-0.9 1.1,-3.2 1.1,-3.3 c -4.6,-3.6 -9.1,-6.8 -13.8,-9.7 0.8,-0.2 1.7,-0.6 2.5,-0.8 7.5,-1.7 14.6,-2.3 21,-1.7 l 4.3,-2.6 4.4,-2.7 1.7,-1 3.7,-2.3 3.6,-2.2 c -12,-4.7 -26.2,-5.5 -41.9,-1.9 -5.9,1.4 -11.9,3.3 -17.8,5.8 -29.3,-12.1 -58,-10.6 -75,6.7 -13.4,13.6 -17.9,34.4 -12.6,58.5 1.3,6 3.4,12.1 5.9,18.1 -9.1,22.5 -11.1,44.7 -4.9,62.3 z m 13,-83.4 c -4.2,-19.1 -1.1,-35.2 8.7,-45.2 10.7,-10.9 28.2,-13 47.4,-7.9 -11.2,6.8 -22,15.3 -31.8,25.5 -9.3,9.6 -17.2,20 -23.4,30.7 -0.3,-1 -0.7,-2.1 -0.9,-3.1 z"
         id="path369"
         style="fill:#662d91;fill-opacity:1" />
      <path
         class="st0"
         d="m -347.3,74.7 -4.5,7.3 -2.2,3.5 c 1.9,5.8 2.6,12.5 1.9,19.9 l -0.1,1.1 0.6,1 c 2.1,3.3 4,6.6 5.7,10 l 4.3,8.5 2,-9.3 c 3.7,-17.6 1.6,-33.2 -5.7,-45.3 z"
         id="path371"
         style="fill:#662d91;fill-opacity:1" />
      <path
         class="st0"
         d="m -488.5,211 3.9,-2.3 13.1,-7.8 3.5,-10.9 1.1,-3.4 1.5,-4.6 1.9,-6 1.8,-5.7 c 2.2,-4.8 -1.5,-9.8 -6.2,-9.8 -0.7,0 -1.4,0.1 -2.2,0.3 l -18.6,6 -4.8,1.5 -8.3,2.7 -8.1,12.7 -2.2,3.5 -2.3,3.7 -0.7,1.1 -2,3.2 -2.1,3.4 -22.2,34.9 5.8,5.4 35.4,-21.1 3.4,-2 3.6,-2.2 1,-0.6 z"
         id="path373"
         style="fill:#662d91;fill-opacity:1" />
      <path
         class="st0"
         d="m -380.6,52.5 -3.5,2.2 -11.1,6.8 -2.7,7.8 -2.6,7.7 -5.4,15.9 c -1.6,4.7 2.1,9.2 6.5,9.2 0.9,0 1.9,-0.2 2.8,-0.6 l 15.3,-4.6 7.1,-2.1 8.3,-2.5 8.7,-14.1 1.8,-2.9 28.8,-46.5 -5.3,-5.9 -37,22.6 -3.4,2.1 -3.1,1.9 -1.4,0.9 z"
         id="path375"
         style="fill:#662d91;fill-opacity:1" />
      <path
         class="st0"
         d="m -401.2,132.1 c 0,-17.8 -14.4,-32.2 -32.2,-32.2 -17.8,0 -32.2,14.4 -32.2,32.2 0,17.8 14.4,32.2 32.2,32.2 17.8,0 32.2,-14.4 32.2,-32.2 z"
         id="path377"
         style="fill:#662d91;fill-opacity:1" />
    </g>
  </g>
</svg>
